A young woman, after witnessing her parents\' murder as a child in Bogota, grows up to be a stone-cold assassin.

Director:
Olivier Megaton
Writers:
Luc Besson (screenplay), Robert Mark Kamen (screenplay)
Stars:
Zoe Saldana, Michael Vartan and Callum Blue 

Media info:

General
Complete name                    : E:\\torrent2\\Colombiana (2011) HDRIP .MKV.360.xvid.AC3 2.0-ACB-team\\Colombiana (2011) HDRIP .MKV.360.xvid.AC3 5.1 upmix-ACB-Team.mkv
Format                           : Matroska
File size                        : 1.67 GiB
Duration                         : 1h 47mn
Overall bit rate                 : 2 223 Kbps
Encoded date                     : UTC 2011-10-10 19:52:36
Writing application              : mkvmerge v3.2.0 (\'Beginnings\') built on Feb 12 2010 16:46:17
Writing library                  : libebml v0.7.9 + libmatroska v0.8.1

Video
ID                               : 1
Format                           : MPEG-4 Visual
Format profile                   : Advanced Simple@L5
Format settings, BVOP            : Yes
Format settings, QPel            : Yes
Format settings, GMC             : No warppoints
Format settings, Matrix          : Default (H.263)
Codec ID                         : XVID
Codec ID/Hint                    : XviD
Duration                         : 1h 47mn
Bit rate                         : 1 731 Kbps
Width                            : 720 pixels
Height                           : 288 pixels
Display aspect ratio             : 2.500
Frame rate                       : 29.970 fps
Color space                      : YUV
Chroma subsampling               : 4:2:0
Bit depth                        : 8 bits
Scan type                        : Progressive
Bits/(Pixel*Frame)               : 0.278
Stream size                      : 1.30 GiB (78%)
Writing library                  : XviD 1.2.1 (UTC 2008-12-04)

Audio
ID                               : 3
Format                           : AC-3
Format/Info                      : Audio Coding 3
Mode extension                   : CM (complete main)
Codec ID                         : A_AC3
Duration                         : 1h 47mn
Bit rate mode                    : Constant
Bit rate                         : 448 Kbps
Channel(s)                       : 6 channels
Channel positions                : Front: L C R, Side: L R, LFE
Sampling rate                    : 48.0 KHz
Bit depth                        : 16 bits
Stream size                      : 345 MiB (20%)
Language                         : English

Text
ID                               : 2
Format                           : UTF-8
Codec ID                         : S_TEXT/UTF8
Codec ID/Info                    : UTF-8 Plain Text
Language                         : Dutch

